<svg width="328" height="93" viewBox="0 0 328 93" fill="none" xmlns="http://www.w3.org/2000/svg">
<path d="M233.591 60.8362V18.7471L243.726 16.7812V44.4766L254.354 31.7976H267.152L254.006 45.7705L268.34 60.8362H254.759L243.726 47.9271V60.8362H233.591Z" fill="white"/>
<path d="M155.704 31.772L160.01 44.6063L160.097 44.8369C160.733 46.6399 161.137 48.0787 161.311 49.1529C161.426 48.5393 161.575 47.8969 161.759 47.2252C161.942 46.554 162.207 45.6904 162.554 44.6351L166.947 31.772H177.612L165.357 60.836H158.074L153.738 47.6852C153.507 46.9375 153.3 46.1848 153.117 45.4261C152.933 44.669 152.765 43.9157 152.611 43.1675C152.399 44.3187 152.023 45.7675 151.484 47.5128L151.426 47.714L147.119 60.836H139.836L127.639 31.772H138.246L142.611 44.6351C142.938 45.5752 143.199 46.3955 143.391 47.0955C143.583 47.7961 143.738 48.4817 143.854 49.1529C144.027 48.194 144.403 46.8605 144.981 45.1528C145.057 44.9228 145.115 44.7504 145.154 44.6351L149.489 31.772H155.704Z" fill="white"/>
<path d="M268.34 58.2824L270.519 50.5077C272.051 51.8038 273.735 52.7994 275.571 53.4944C277.407 54.1905 279.257 54.5377 281.123 54.5377C282.438 54.5377 283.44 54.3332 284.128 53.9231C284.814 53.5141 285.158 52.9185 285.158 52.137C285.158 50.8605 283.774 49.9071 281.005 49.2784C280.102 49.0694 279.376 48.8879 278.826 48.7351C275.684 47.8974 273.401 46.7968 271.978 45.4338C270.554 44.0719 269.842 42.3043 269.842 40.1317C269.842 37.3304 270.927 35.0915 273.097 33.4144C275.266 31.7379 278.207 30.8991 281.918 30.8991C283.823 30.8991 285.761 31.1137 287.736 31.5424C289.708 31.9711 291.727 32.6335 293.788 33.529L291.608 40.5317C290.214 39.6171 288.801 38.9221 287.367 38.4451C285.934 37.9692 284.5 37.7304 283.067 37.7304C281.869 37.7304 280.965 37.9119 280.357 38.2737C279.748 38.6361 279.444 39.1597 279.444 39.8457C279.444 40.875 280.818 41.7425 283.568 42.447C284.196 42.6184 284.667 42.7426 284.981 42.8184C288.614 43.8286 291.142 45.0152 292.566 46.3771C293.989 47.7401 294.701 49.5835 294.701 51.9083C294.701 54.8625 293.532 57.2492 291.196 59.0684C288.859 60.8876 285.767 61.7978 281.918 61.7978C279.306 61.7978 276.881 61.5073 274.643 60.9264C272.405 60.3454 270.303 59.4645 268.34 58.2824Z" fill="white"/>
<path d="M220.159 36.5294H220.271C222.232 32.9589 225.594 31.373 229.57 31.373H231.533V41.2872C230.132 40.4951 228.786 40.3245 227.218 40.3245C221.558 40.3245 220.159 44.1207 220.159 49.1076V60.8358H209.965V31.7693H220.159V36.5294Z" fill="white"/>
<path fill-rule="evenodd" clip-rule="evenodd" d="M32.3521 72.4696L50.3027 41.676H36.4351V31.772L66.6481 31.772L50.0101 62.525L73.2739 62.525L32.3521 72.4696Z" fill="white"/>
<path fill-rule="evenodd" clip-rule="evenodd" d="M73.6984 46.3791C73.6984 50.0444 76.0254 52.8689 80.0225 52.8689C84.0282 52.8689 86.3572 50.0444 86.3572 46.3791C86.3572 42.8132 84.0282 39.8232 80.0225 39.8232C76.0254 39.8232 73.6984 42.8132 73.6984 46.3791ZM95.8796 60.8338H86.0314V57.6102H85.9248C84.1914 60.4937 80.7873 61.7978 77.5323 61.7978C69.315 61.7978 63.5272 54.6132 63.5272 46.3206C63.5272 38.0141 69.2084 30.8991 77.431 30.8991C80.62 30.8991 83.9776 32.1454 86.0314 34.6813V31.8561H95.8796V60.8338Z" fill="white"/>
<path fill-rule="evenodd" clip-rule="evenodd" d="M113.788 39.8268C117.793 39.8268 120.118 42.8183 120.118 46.3855C120.118 50.0522 117.793 52.8787 113.788 52.8787C109.791 52.8787 107.46 50.0522 107.46 46.3855C107.46 42.8183 109.791 39.8268 113.788 39.8268ZM107.785 58.0764C109.898 60.6104 113.196 61.8113 116.388 61.8113C124.611 61.8113 130.291 54.8029 130.291 46.444C130.291 38.1379 124.557 30.8991 116.276 30.8991C113.034 30.8991 109.677 32.2622 107.895 35.1395H107.785V31.857H97.9391V72.5274L107.785 70.5127V58.0764Z" fill="white"/>
<path fill-rule="evenodd" clip-rule="evenodd" d="M191.209 52.5076C187.473 52.5076 184.963 49.9765 184.963 46.2108C184.963 42.4785 187.532 39.8723 191.209 39.8723C194.888 39.8723 197.457 42.4785 197.457 46.2108C197.457 49.9765 194.946 52.5076 191.209 52.5076ZM202.741 34.9429C199.815 32.3353 195.784 30.8991 191.392 30.8991C183.601 30.8991 175.216 35.743 175.216 46.377C175.216 53.8041 180.278 61.7978 191.392 61.7978C195.78 61.7978 199.811 60.3644 202.742 57.7617H202.743C205.899 54.9553 207.568 51.0186 207.568 46.377C207.568 41.711 205.899 37.7569 202.741 34.9429Z" fill="white"/>
</svg>
